<svg id="line" xmlns="http://www.w3.org/2000/svg" viewBox="0 0 32 32"><path d="M27.71191,6.59473H7.332l-.26654-.97754A2.42684,2.42684,0,0,0,4.72754,3.83008H3.00006a.50011.50011,0,0,0-.00006,1H4.72754a1.42558,1.42558,0,0,1,1.37305,1.0498L9.63788,18.85144l.29352,1.07727H9.03125a2.2041,2.2041,0,0,0,0,4.4082h.34833a2.41351,2.41351,0,1,0,3.90387,0h6.59027a2.41351,2.41351,0,1,0,3.90387,0H24.582a.50012.50012,0,0,0,0-1H9.03125a1.2041,1.2041,0,0,1,0-2.4082h15.749a1.79088,1.79088,0,0,0,1.72461-1.31641L29.43652,8.85059A1.7975,1.7975,0,0,0,27.71191,6.59473ZM11.33112,27.16992a1.41666,1.41666,0,0,1-.00007-2.833A1.41666,1.41666,0,0,1,11.33112,27.16992Zm10.49414,0a1.41666,1.41666,0,0,1-.00006-2.833A1.41666,1.41666,0,0,1,21.82526,27.16992Zm6.64642-18.582L27.775,11.14551H23.719c.27124-1.48291.6106-3.33911.64936-3.55078h3.34356A.7916.7916,0,0,1,28.47168,8.58789Zm-1.92206,7.05566h-3.6532c.29676-1.62261.34076-1.86352.63971-3.498h3.96643ZM10.968,19.92871l-.221-.81024-.67426-2.47492h3.03894l.60077,3.28516Zm6.5086-8.7832H13.12341C12.84534,9.625,12.529,7.895,12.47406,7.59473h5.0025Zm1-3.55078h4.87458c-.05494.30029-.37128,2.03027-.64936,3.55078H18.47656Zm-1,4.55078v3.498H13.946c-.29187-1.596-.3366-1.84069-.6397-3.498Zm-4.54779,3.498H9.80029l-.953-3.498h3.44177Zm1.20014,1h3.34765v3.28516H14.72968C14.69385,19.73285,14.36963,17.95984,14.12891,16.64355Zm4.34765,0h3.21973c-.24072,1.31629-.56494,3.0893-.60077,3.28516h-2.619Zm0-1v-3.498h4.0423c-.3031,1.65735-.34784,1.902-.63971,3.498ZM11.45685,7.59473l.64935,3.55078H8.57483L7.60742,7.59473ZM25.54,19.34961a.78848.78848,0,0,1-.75977.5791H22.11273c.05084-.27783.35309-1.93066.60077-3.28516h3.56372Z"/></svg>